<mxfile host="app.diagrams.net" agent="Mozilla/5.0 (Windows NT 10.0; Win64; x64; rv:132.0) Gecko/20100101 Firefox/132.0" version="24.8.6">
  <diagram name="Page-1" id="0783ab3e-0a74-02c8-0abd-f7b4e66b4bec">
    <mxGraphModel dx="1000" dy="504" grid="1" gridSize="10" guides="1" tooltips="1" connect="1" arrows="1" fold="1" page="1" pageScale="1" pageWidth="850" pageHeight="1100" background="none" math="0" shadow="0">
      <root>
        <mxCell id="0" />
        <mxCell id="1" parent="0" />
        <mxCell id="HePBQS-gzyi-C_9M0Dz4-7" style="edgeStyle=orthogonalEdgeStyle;rounded=0;orthogonalLoop=1;jettySize=auto;html=1;exitX=0.5;exitY=1;exitDx=0;exitDy=0;" edge="1" parent="1" source="HePBQS-gzyi-C_9M0Dz4-1" target="HePBQS-gzyi-C_9M0Dz4-6">
          <mxGeometry relative="1" as="geometry" />
        </mxCell>
        <mxCell id="HePBQS-gzyi-C_9M0Dz4-1" value="" style="ellipse;fillColor=strokeColor;html=1;" vertex="1" parent="1">
          <mxGeometry x="630" y="40" width="40" height="40" as="geometry" />
        </mxCell>
        <mxCell id="HePBQS-gzyi-C_9M0Dz4-6" value="Initialization" style="shape=umlFrame;whiteSpace=wrap;html=1;pointerEvents=0;recursiveResize=0;container=1;collapsible=0;width=160;" vertex="1" parent="1">
          <mxGeometry x="420" y="140" width="460" height="410" as="geometry" />
        </mxCell>
        <mxCell id="HePBQS-gzyi-C_9M0Dz4-15" value="" style="edgeStyle=orthogonalEdgeStyle;rounded=0;orthogonalLoop=1;jettySize=auto;html=1;" edge="1" parent="HePBQS-gzyi-C_9M0Dz4-6" source="HePBQS-gzyi-C_9M0Dz4-12" target="HePBQS-gzyi-C_9M0Dz4-14">
          <mxGeometry relative="1" as="geometry" />
        </mxCell>
        <mxCell id="HePBQS-gzyi-C_9M0Dz4-12" value="Set Constants" style="html=1;shape=mxgraph.infographic.ribbonSimple;notch1=20;notch2=0;align=center;verticalAlign=middle;fontSize=14;fontStyle=0;fillColor=#FFFFFF;flipH=0;spacingRight=0;spacingLeft=14;whiteSpace=wrap;" vertex="1" parent="HePBQS-gzyi-C_9M0Dz4-6">
          <mxGeometry x="20" y="60" width="170" height="40" as="geometry" />
        </mxCell>
        <mxCell id="HePBQS-gzyi-C_9M0Dz4-17" value="" style="edgeStyle=orthogonalEdgeStyle;rounded=0;orthogonalLoop=1;jettySize=auto;html=1;" edge="1" parent="HePBQS-gzyi-C_9M0Dz4-6" source="HePBQS-gzyi-C_9M0Dz4-14" target="HePBQS-gzyi-C_9M0Dz4-16">
          <mxGeometry relative="1" as="geometry" />
        </mxCell>
        <mxCell id="HePBQS-gzyi-C_9M0Dz4-21" value="" style="edgeStyle=orthogonalEdgeStyle;rounded=0;orthogonalLoop=1;jettySize=auto;html=1;" edge="1" parent="HePBQS-gzyi-C_9M0Dz4-6" source="HePBQS-gzyi-C_9M0Dz4-14" target="HePBQS-gzyi-C_9M0Dz4-20">
          <mxGeometry relative="1" as="geometry" />
        </mxCell>
        <mxCell id="HePBQS-gzyi-C_9M0Dz4-14" value="Instantiate Window" style="html=1;align=center;verticalAlign=top;rounded=1;absoluteArcSize=1;arcSize=10;dashed=0;whiteSpace=wrap;" vertex="1" parent="HePBQS-gzyi-C_9M0Dz4-6">
          <mxGeometry x="35" y="120" width="140" height="30" as="geometry" />
        </mxCell>
        <mxCell id="HePBQS-gzyi-C_9M0Dz4-23" value="" style="edgeStyle=orthogonalEdgeStyle;rounded=0;orthogonalLoop=1;jettySize=auto;html=1;" edge="1" parent="HePBQS-gzyi-C_9M0Dz4-6" source="HePBQS-gzyi-C_9M0Dz4-16" target="HePBQS-gzyi-C_9M0Dz4-22">
          <mxGeometry relative="1" as="geometry" />
        </mxCell>
        <mxCell id="HePBQS-gzyi-C_9M0Dz4-38" style="edgeStyle=orthogonalEdgeStyle;rounded=0;orthogonalLoop=1;jettySize=auto;html=1;exitX=1;exitY=0.5;exitDx=0;exitDy=0;entryX=0;entryY=0.5;entryDx=0;entryDy=0;" edge="1" parent="HePBQS-gzyi-C_9M0Dz4-6" source="HePBQS-gzyi-C_9M0Dz4-16" target="HePBQS-gzyi-C_9M0Dz4-32">
          <mxGeometry relative="1" as="geometry" />
        </mxCell>
        <mxCell id="HePBQS-gzyi-C_9M0Dz4-16" value="Instantiate world" style="html=1;align=center;verticalAlign=top;rounded=1;absoluteArcSize=1;arcSize=10;dashed=0;whiteSpace=wrap;" vertex="1" parent="HePBQS-gzyi-C_9M0Dz4-6">
          <mxGeometry x="35" y="170" width="140" height="30" as="geometry" />
        </mxCell>
        <mxCell id="HePBQS-gzyi-C_9M0Dz4-20" value="SFML Window Object" style="fontStyle=1;whiteSpace=wrap;html=1;" vertex="1" parent="HePBQS-gzyi-C_9M0Dz4-6">
          <mxGeometry x="250" y="120" width="140" height="30" as="geometry" />
        </mxCell>
        <mxCell id="HePBQS-gzyi-C_9M0Dz4-39" style="edgeStyle=orthogonalEdgeStyle;rounded=0;orthogonalLoop=1;jettySize=auto;html=1;exitX=1;exitY=0.5;exitDx=0;exitDy=0;entryX=0;entryY=0.5;entryDx=0;entryDy=0;" edge="1" parent="HePBQS-gzyi-C_9M0Dz4-6" source="HePBQS-gzyi-C_9M0Dz4-22" target="HePBQS-gzyi-C_9M0Dz4-34">
          <mxGeometry relative="1" as="geometry" />
        </mxCell>
        <mxCell id="HePBQS-gzyi-C_9M0Dz4-59" value="" style="edgeStyle=orthogonalEdgeStyle;rounded=0;orthogonalLoop=1;jettySize=auto;html=1;" edge="1" parent="HePBQS-gzyi-C_9M0Dz4-6" source="HePBQS-gzyi-C_9M0Dz4-22" target="HePBQS-gzyi-C_9M0Dz4-58">
          <mxGeometry relative="1" as="geometry" />
        </mxCell>
        <mxCell id="HePBQS-gzyi-C_9M0Dz4-22" value="Create History Map" style="html=1;align=center;verticalAlign=top;rounded=1;absoluteArcSize=1;arcSize=10;dashed=0;whiteSpace=wrap;" vertex="1" parent="HePBQS-gzyi-C_9M0Dz4-6">
          <mxGeometry x="35" y="220" width="140" height="30" as="geometry" />
        </mxCell>
        <mxCell id="HePBQS-gzyi-C_9M0Dz4-28" value="Set Round to 0" style="html=1;align=center;verticalAlign=top;rounded=1;absoluteArcSize=1;arcSize=10;dashed=0;whiteSpace=wrap;" vertex="1" parent="HePBQS-gzyi-C_9M0Dz4-6">
          <mxGeometry x="35" y="330" width="140" height="30" as="geometry" />
        </mxCell>
        <mxCell id="HePBQS-gzyi-C_9M0Dz4-32" value="Box2D World Object" style="fontStyle=1;whiteSpace=wrap;html=1;" vertex="1" parent="HePBQS-gzyi-C_9M0Dz4-6">
          <mxGeometry x="250" y="170" width="140" height="30" as="geometry" />
        </mxCell>
        <mxCell id="HePBQS-gzyi-C_9M0Dz4-34" value="Unordered Map Object" style="fontStyle=1;whiteSpace=wrap;html=1;" vertex="1" parent="HePBQS-gzyi-C_9M0Dz4-6">
          <mxGeometry x="250" y="220" width="140" height="30" as="geometry" />
        </mxCell>
        <mxCell id="HePBQS-gzyi-C_9M0Dz4-41" value="Creates" style="text;html=1;align=center;verticalAlign=middle;resizable=0;points=[];autosize=1;strokeColor=none;fillColor=none;" vertex="1" parent="HePBQS-gzyi-C_9M0Dz4-6">
          <mxGeometry x="175" y="110" width="70" height="30" as="geometry" />
        </mxCell>
        <mxCell id="HePBQS-gzyi-C_9M0Dz4-42" value="Creates" style="text;html=1;align=center;verticalAlign=middle;resizable=0;points=[];autosize=1;strokeColor=none;fillColor=none;" vertex="1" parent="HePBQS-gzyi-C_9M0Dz4-6">
          <mxGeometry x="175" y="160" width="70" height="30" as="geometry" />
        </mxCell>
        <mxCell id="HePBQS-gzyi-C_9M0Dz4-43" value="Creates" style="text;html=1;align=center;verticalAlign=middle;resizable=0;points=[];autosize=1;strokeColor=none;fillColor=none;" vertex="1" parent="HePBQS-gzyi-C_9M0Dz4-6">
          <mxGeometry x="175" y="210" width="70" height="30" as="geometry" />
        </mxCell>
        <mxCell id="HePBQS-gzyi-C_9M0Dz4-45" value="Creates" style="text;html=1;align=center;verticalAlign=middle;resizable=0;points=[];autosize=1;strokeColor=none;fillColor=none;" vertex="1" parent="HePBQS-gzyi-C_9M0Dz4-6">
          <mxGeometry x="175" y="271" width="70" height="30" as="geometry" />
        </mxCell>
        <mxCell id="HePBQS-gzyi-C_9M0Dz4-51" value="Agent Object" style="swimlane;fontStyle=1;align=center;verticalAlign=middle;childLayout=stackLayout;horizontal=1;startSize=29;horizontalStack=0;resizeParent=1;resizeParentMax=0;resizeLast=0;collapsible=0;marginBottom=0;html=1;whiteSpace=wrap;" vertex="1" parent="HePBQS-gzyi-C_9M0Dz4-6">
          <mxGeometry x="250" y="271" width="180" height="129" as="geometry" />
        </mxCell>
        <mxCell id="HePBQS-gzyi-C_9M0Dz4-52" value="b2Body Object" style="text;html=1;strokeColor=none;fillColor=none;align=center;verticalAlign=middle;spacingLeft=4;spacingRight=4;overflow=hidden;rotatable=0;points=[[0,0.5],[1,0.5]];portConstraint=eastwest;whiteSpace=wrap;" vertex="1" parent="HePBQS-gzyi-C_9M0Dz4-51">
          <mxGeometry y="29" width="180" height="25" as="geometry" />
        </mxCell>
        <mxCell id="HePBQS-gzyi-C_9M0Dz4-54" value="Fill and Outline Color Objects" style="text;html=1;strokeColor=none;fillColor=none;align=center;verticalAlign=middle;spacingLeft=4;spacingRight=4;overflow=hidden;rotatable=0;points=[[0,0.5],[1,0.5]];portConstraint=eastwest;whiteSpace=wrap;" vertex="1" parent="HePBQS-gzyi-C_9M0Dz4-51">
          <mxGeometry y="54" width="180" height="25" as="geometry" />
        </mxCell>
        <mxCell id="HePBQS-gzyi-C_9M0Dz4-55" value="Maneuver Object" style="text;html=1;strokeColor=none;fillColor=none;align=center;verticalAlign=middle;spacingLeft=4;spacingRight=4;overflow=hidden;rotatable=0;points=[[0,0.5],[1,0.5]];portConstraint=eastwest;whiteSpace=wrap;" vertex="1" parent="HePBQS-gzyi-C_9M0Dz4-51">
          <mxGeometry y="79" width="180" height="25" as="geometry" />
        </mxCell>
        <mxCell id="HePBQS-gzyi-C_9M0Dz4-56" value="Tactic Object" style="text;html=1;strokeColor=none;fillColor=none;align=center;verticalAlign=middle;spacingLeft=4;spacingRight=4;overflow=hidden;rotatable=0;points=[[0,0.5],[1,0.5]];portConstraint=eastwest;whiteSpace=wrap;" vertex="1" parent="HePBQS-gzyi-C_9M0Dz4-51">
          <mxGeometry y="104" width="180" height="25" as="geometry" />
        </mxCell>
        <mxCell id="HePBQS-gzyi-C_9M0Dz4-62" value="" style="edgeStyle=orthogonalEdgeStyle;rounded=0;orthogonalLoop=1;jettySize=auto;html=1;" edge="1" parent="HePBQS-gzyi-C_9M0Dz4-6" source="HePBQS-gzyi-C_9M0Dz4-58" target="HePBQS-gzyi-C_9M0Dz4-28">
          <mxGeometry relative="1" as="geometry" />
        </mxCell>
        <mxCell id="HePBQS-gzyi-C_9M0Dz4-64" style="edgeStyle=orthogonalEdgeStyle;rounded=0;orthogonalLoop=1;jettySize=auto;html=1;exitX=1;exitY=0.5;exitDx=0;exitDy=0;exitPerimeter=0;entryX=0;entryY=0.5;entryDx=0;entryDy=0;" edge="1" parent="HePBQS-gzyi-C_9M0Dz4-6" source="HePBQS-gzyi-C_9M0Dz4-58" target="HePBQS-gzyi-C_9M0Dz4-54">
          <mxGeometry relative="1" as="geometry" />
        </mxCell>
        <mxCell id="HePBQS-gzyi-C_9M0Dz4-58" value="Create Agents" style="html=1;shape=mxgraph.infographic.ribbonSimple;notch1=20;notch2=20;align=center;verticalAlign=middle;fontSize=14;fontStyle=0;fillColor=#FFFFFF;whiteSpace=wrap;" vertex="1" parent="HePBQS-gzyi-C_9M0Dz4-6">
          <mxGeometry x="25" y="271" width="160" height="40" as="geometry" />
        </mxCell>
        <mxCell id="HePBQS-gzyi-C_9M0Dz4-8" value="&lt;div&gt;Settings.csv&lt;/div&gt;" style="html=1;shape=mxgraph.infographic.ribbonSimple;notch1=0;notch2=20;align=center;verticalAlign=middle;fontSize=14;fontStyle=0;fillColor=#FFFFFF;whiteSpace=wrap;" vertex="1" parent="1">
          <mxGeometry x="200" y="200" width="160" height="40" as="geometry" />
        </mxCell>
        <mxCell id="HePBQS-gzyi-C_9M0Dz4-9" value="Colors.csv" style="html=1;shape=mxgraph.infographic.ribbonSimple;notch1=0;notch2=20;align=center;verticalAlign=middle;fontSize=14;fontStyle=0;fillColor=#FFFFFF;whiteSpace=wrap;" vertex="1" parent="1">
          <mxGeometry x="200" y="320" width="160" height="40" as="geometry" />
        </mxCell>
        <mxCell id="HePBQS-gzyi-C_9M0Dz4-10" value="Agents.csv" style="html=1;shape=mxgraph.infographic.ribbonSimple;notch1=0;notch2=20;align=center;verticalAlign=middle;fontSize=14;fontStyle=0;fillColor=#FFFFFF;whiteSpace=wrap;" vertex="1" parent="1">
          <mxGeometry x="200" y="260" width="160" height="40" as="geometry" />
        </mxCell>
        <mxCell id="HePBQS-gzyi-C_9M0Dz4-13" style="edgeStyle=orthogonalEdgeStyle;rounded=0;orthogonalLoop=1;jettySize=auto;html=1;exitX=1;exitY=0.5;exitDx=0;exitDy=0;exitPerimeter=0;entryX=0;entryY=0;entryDx=20;entryDy=20;entryPerimeter=0;" edge="1" parent="1" source="HePBQS-gzyi-C_9M0Dz4-8" target="HePBQS-gzyi-C_9M0Dz4-12">
          <mxGeometry relative="1" as="geometry" />
        </mxCell>
        <mxCell id="HePBQS-gzyi-C_9M0Dz4-26" value="Initialization or instantiation?" style="shape=note2;boundedLbl=1;whiteSpace=wrap;html=1;size=21;verticalAlign=top;align=center;" vertex="1" parent="1">
          <mxGeometry x="260" y="460" width="120" height="60" as="geometry" />
        </mxCell>
        <mxCell id="HePBQS-gzyi-C_9M0Dz4-60" style="edgeStyle=orthogonalEdgeStyle;rounded=0;orthogonalLoop=1;jettySize=auto;html=1;exitX=1;exitY=0.5;exitDx=0;exitDy=0;exitPerimeter=0;entryX=0;entryY=0;entryDx=20;entryDy=20;entryPerimeter=0;" edge="1" parent="1" source="HePBQS-gzyi-C_9M0Dz4-10" target="HePBQS-gzyi-C_9M0Dz4-58">
          <mxGeometry relative="1" as="geometry">
            <Array as="points">
              <mxPoint x="400" y="280" />
              <mxPoint x="400" y="430" />
              <mxPoint x="465" y="430" />
            </Array>
          </mxGeometry>
        </mxCell>
        <mxCell id="HePBQS-gzyi-C_9M0Dz4-61" style="edgeStyle=orthogonalEdgeStyle;rounded=0;orthogonalLoop=1;jettySize=auto;html=1;exitX=1;exitY=0.5;exitDx=0;exitDy=0;exitPerimeter=0;entryX=0;entryY=0;entryDx=20;entryDy=20;entryPerimeter=0;" edge="1" parent="1" source="HePBQS-gzyi-C_9M0Dz4-9" target="HePBQS-gzyi-C_9M0Dz4-58">
          <mxGeometry relative="1" as="geometry">
            <Array as="points">
              <mxPoint x="400" y="340" />
              <mxPoint x="400" y="431" />
            </Array>
          </mxGeometry>
        </mxCell>
      </root>
    </mxGraphModel>
  </diagram>
</mxfile>
